# xmcd
#
# Track frame offsets: 
#        182
#        9710
#        32580
#        49757
#        67075
#        83377
#        97790
#        122910
#        139547
#        155810
#        172297
#        188930
#        217957
#        233907
#        246432
#        266595
#        286282
#        303907
#        327182
#
# Disc length: 4751 seconds
#
# Revision: 1
# Processed by: cddbd v1.5.2PL0 Copyright (c) Steve Scherf et al.
# Submitted via: ExactAudioCopy v0.99pb5
#
DISCID=0d128d13
DTITLE=Poco - From The Inside - A Good Feelin' To Know
DYEAR=1997
DGENRE=Country
TTITLE0=Hoe Down
TTITLE1=Bad Weather
TTITLE2=What Am I Gonna Do
TTITLE3=You Are The One
TTITLE4=Railroad Days
TTITLE5=From The Inside
TTITLE6=Do You Feel It Too
TTITLE7=Ol' Forgiver
TTITLE8=What If I Should Say I Love You
TTITLE9=Just For Me And You
TTITLE10=Abd Settlin' Down
TTITLE11=Ride The Country
TTITLE12=I Can See Everything
TTITLE13=Go And Say Goodbye
TTITLE14=Keeper Of The Fire
TTITLE15=Early Times
TTITLE16=A Good Feelin' To Know
TTITLE17=Restrain
TTITLE18=Sweet Lovin'
EXTD=YEAR: 1997
EXTT0=
EXTT1=
EXTT2=
EXTT3=
EXTT4=
EXTT5=
EXTT6=
EXTT7=
EXTT8=
EXTT9=
EXTT10=
EXTT11=
EXTT12=
EXTT13=
EXTT14=
EXTT15=
EXTT16=
EXTT17=
EXTT18=
PLAYORDER=
